<?xml version="1.0" encoding="UTF-8"?>
<svg id="Camada_1" data-name="Camada 1" xmlns="http://www.w3.org/2000/svg" viewBox="0 0 970.37 579.33">
  <defs>
    <style>
      .cls-1 {
        fill: #fff;
        font-family: Montserrat-BoldItalic, Montserrat;
        font-size: 522.4px;
        font-style: italic;
        font-weight: 700;
        letter-spacing: -.09em;
      }

      .cls-2 {
        fill: #f7cd00;
      }
    </style>
  </defs>
  <path class="cls-2" d="m97.09,442.56h0c51.73,0,93.67-41.94,93.67-93.67v-33.39c0,.52-.42.94-.94.94h-60.6c-3.45,0-6.25-2.8-6.25-6.25v-.03c0-3.5,2.83-6.33,6.33-6.33h60.52c.52,0,.94.42.94.94v-27.1c0,.52-.42.94-.94.94h-60.6c-3.45,0-6.25-2.8-6.25-6.25v-.03c0-3.5,2.83-6.33,6.33-6.33h60.52c.52,0,.94.42.94.94v-27.1c0,.52-.42.94-.94.94h-60.6c-3.45,0-6.25-2.8-6.25-6.25v-.03c0-3.5,2.83-6.33,6.33-6.33h60.52c.52,0,.94.42.94.94v-27.1c0,.52-.42.94-.94.94h-60.6c-3.45,0-6.25-2.8-6.25-6.25v-.03c0-3.5,2.83-6.33,6.33-6.33h60.52c.52,0,.94.42.94.94v-9.22c0-52.02-42.17-94.19-94.19-94.19h0C43.23,87.85,0,131.08,0,184.41v6.84c0-.52.42-.94.94-.94h60.6c3.45,0,6.25,2.8,6.25,6.25v.03c0,3.5-2.83,6.33-6.33,6.33H.94c-.52,0-.94-.42-.94-.94v27.1c0-.52.42-.94.94-.94h60.6c3.45,0,6.25,2.8,6.25,6.25v.03c0,3.5-2.83,6.33-6.33,6.33H.94c-.52,0-.94-.42-.94-.94v27.1c0-.52.42-.94.94-.94h60.6c3.45,0,6.25,2.8,6.25,6.25v.03c0,3.5-2.83,6.33-6.33,6.33H.94c-.52,0-.94-.42-.94-.94v27.1c0-.52.42-.94.94-.94h60.6c3.45,0,6.25,2.8,6.25,6.25v.03c0,3.5-2.83,6.33-6.33,6.33H.94c-.52,0-.94-.42-.94-.94v29.97c0,53.62,43.47,97.09,97.09,97.09Z"/>
  <text class="cls-1" transform="translate(162.24 444.03)"><tspan x="0" y="0">DN</tspan></text>
</svg>